<svg width="64" height="64" viewBox="0 0 64 64" fill="none" xmlns="http://www.w3.org/2000/svg">
<path d="M22 58H42" stroke="white" stroke-width="4" stroke-linecap="round" stroke-linejoin="round"/>
<path d="M19.675 41.75C17.294 39.8986 15.3655 37.5296 14.0358 34.8225C12.706 32.1154 12.0098 29.1411 12 26.125C11.95 15.275 20.675 6.25 31.525 6C35.7241 5.90046 39.8481 7.12551 43.3119 9.50142C46.7757 11.8773 49.4035 15.2835 50.8227 19.2368C52.2419 23.1901 52.3805 27.4899 51.2187 31.5264C50.0568 35.5628 47.6537 39.1311 44.35 41.725C43.6202 42.2891 43.029 43.0126 42.6217 43.8402C42.2144 44.6678 42.0018 45.5776 42 46.5V48C42 48.5304 41.7893 49.0391 41.4142 49.4142C41.0391 49.7893 40.5304 50 40 50H24C23.4695 50 22.9608 49.7893 22.5858 49.4142C22.2107 49.0391 22 48.5304 22 48V46.5C21.9937 45.5845 21.7815 44.6822 21.379 43.8599C20.9765 43.0377 20.3941 42.3165 19.675 41.75V41.75Z" stroke="#FFD131" stroke-width="4" stroke-linecap="round" stroke-linejoin="round"/>
<path d="M34.025 14.2C36.4695 14.6143 38.725 15.7772 40.4804 17.5281C42.2358 19.279 43.4044 21.5316 43.825 23.975" stroke="#595959" stroke-width="4" stroke-linecap="round" stroke-linejoin="round"/>
</svg>
